<svg width="24" height="24" viewBox="0 0 38 38" fill="none" xmlns="http://www.w3.org/2000/svg">
<g id="account__cog">
<path d="M13.6325 34.8333C12.8599 34.8288 12.1097 34.5731 11.495 34.105L8.2175 31.6667C7.46116 31.077 6.95931 30.22 6.81503 29.2719C6.67075 28.3237 6.89498 27.3563 7.44167 26.5683C7.73093 26.1412 7.91475 25.6516 7.97806 25.1396C8.04136 24.6277 7.98234 24.108 7.80583 23.6233L7.71083 23.37C7.58794 22.9313 7.36331 22.5277 7.05519 22.1921C6.74707 21.8565 6.36414 21.5982 5.9375 21.4383H5.68417C4.7593 21.1273 3.99445 20.464 3.55571 19.5925C3.11697 18.7209 3.03975 17.7115 3.34083 16.7833L4.63917 12.6667C4.75868 12.1897 4.97873 11.7438 5.28456 11.3588C5.59039 10.9737 5.97496 10.6585 6.4125 10.4342C6.81997 10.2242 7.26581 10.0991 7.72302 10.0665C8.18024 10.0338 8.63933 10.0943 9.0725 10.2442C9.54415 10.4029 10.0474 10.444 10.5386 10.364C11.0298 10.284 11.494 10.0852 11.8908 9.785L12.0967 9.62666C12.4559 9.34001 12.7463 8.97639 12.9463 8.56261C13.1463 8.14883 13.251 7.69543 13.2525 7.23583V6.85583C13.2482 5.88704 13.6269 4.95579 14.306 4.26484C14.9851 3.57389 15.9096 3.17918 16.8783 3.16666H20.9158C21.3872 3.16793 21.8536 3.2623 22.2883 3.44435C22.7231 3.6264 23.1176 3.89255 23.4492 4.2275C24.1463 4.9365 24.5335 5.8932 24.5258 6.8875V7.33083C24.5178 7.76744 24.6125 8.19982 24.8023 8.59311C24.992 8.9864 25.2716 9.32959 25.6183 9.595L25.7925 9.72166C26.1479 9.98814 26.5624 10.1647 27.0007 10.2364C27.4391 10.3081 27.8883 10.2727 28.31 10.1333L28.8483 9.95916C29.3044 9.80797 29.7863 9.75019 30.2652 9.78927C30.7442 9.82834 31.2103 9.96347 31.6359 10.1866C32.0614 10.4097 32.4377 10.7163 32.7422 11.088C33.0467 11.4596 33.2733 11.8889 33.4083 12.35L34.6592 16.34C34.9486 17.2621 34.8695 18.2605 34.4385 19.1255C34.0074 19.9906 33.258 20.6549 32.3475 20.9792L32.0308 21.09C31.5651 21.2425 31.1439 21.5071 30.8043 21.8605C30.4648 22.2138 30.2172 22.6452 30.0833 23.1167C29.9573 23.5549 29.9274 24.0153 29.9957 24.4662C30.0641 24.9171 30.229 25.3479 30.4792 25.7292L30.8908 26.3308C31.4368 27.1232 31.6589 28.0944 31.5117 29.0453C31.3645 29.9962 30.8591 30.8548 30.0992 31.445L26.9167 33.8992C26.5322 34.1932 26.0916 34.4054 25.622 34.5228C25.1524 34.6401 24.6637 34.6601 24.1861 34.5815C23.7085 34.5029 23.2521 34.3273 22.8448 34.0657C22.4376 33.804 22.0883 33.4618 21.8183 33.06L21.6283 32.7908C21.369 32.4011 21.0152 32.0835 20.5999 31.8675C20.1846 31.6515 19.7213 31.5443 19.2533 31.5558C18.8068 31.5674 18.3692 31.6838 17.9759 31.8955C17.5826 32.1073 17.2446 32.4086 16.9892 32.775L16.625 33.2975C16.355 33.7021 16.0049 34.0471 15.5964 34.3112C15.188 34.5753 14.7298 34.753 14.25 34.8333C14.0447 34.8534 13.8378 34.8534 13.6325 34.8333ZM6.96667 18.3983C7.86076 18.7171 8.66753 19.2414 9.32203 19.9289C9.97654 20.6164 10.4605 21.448 10.735 22.3567V22.5467C11.0769 23.4913 11.1892 24.5038 11.0625 25.5004C10.9359 26.497 10.574 27.4492 10.0067 28.2783C9.90653 28.389 9.85108 28.5329 9.85108 28.6821C9.85108 28.8313 9.90653 28.9752 10.0067 29.0858L13.4108 31.6667C13.4552 31.7016 13.5066 31.7265 13.5615 31.7399C13.6163 31.7533 13.6734 31.7548 13.7289 31.7443C13.7844 31.7338 13.837 31.7116 13.8832 31.6791C13.9294 31.6465 13.9681 31.6045 13.9967 31.5558L14.3608 31.0333C14.9101 30.2397 15.6436 29.5911 16.4984 29.1431C17.3533 28.6951 18.304 28.4611 19.2692 28.4611C20.2343 28.4611 21.185 28.6951 22.0399 29.1431C22.8948 29.5911 23.6283 30.2397 24.1775 31.0333L24.3675 31.3183C24.4356 31.4149 24.5372 31.4826 24.6525 31.5083C24.7054 31.5161 24.7593 31.5131 24.811 31.4995C24.8627 31.4859 24.9111 31.462 24.9533 31.4292L28.215 28.9592C28.3292 28.8685 28.4043 28.7376 28.4249 28.5933C28.4455 28.449 28.4101 28.3023 28.3258 28.1833L27.9142 27.5817C27.3778 26.7995 27.0239 25.9069 26.8786 24.9696C26.7334 24.0324 26.8005 23.0745 27.075 22.1667C27.3533 21.2125 27.8566 20.3391 28.5427 19.62C29.2287 18.9008 30.0775 18.357 31.0175 18.0342L31.3342 17.9233C31.4661 17.8705 31.5718 17.7675 31.6282 17.637C31.6846 17.5065 31.687 17.359 31.635 17.2267L30.4 13.2842C30.3704 13.2152 30.327 13.1529 30.2726 13.1012C30.2181 13.0495 30.1537 13.0094 30.0833 12.9833C30.0367 12.9597 29.9852 12.9474 29.9329 12.9474C29.8807 12.9474 29.8291 12.9597 29.7825 12.9833L29.2442 13.1575C28.3335 13.4581 27.3635 13.5329 26.4175 13.3757C25.4715 13.2185 24.5778 12.8339 23.8133 12.255L23.75 12.1125C23.0164 11.5569 22.4216 10.8389 22.0123 10.0147C21.6029 9.19055 21.3902 8.28272 21.3908 7.3625V6.87166C21.3937 6.71906 21.3369 6.57135 21.2325 6.46C21.1414 6.37768 21.0228 6.33248 20.9 6.33333H16.8783C16.8138 6.33736 16.7508 6.35408 16.6927 6.38255C16.6347 6.41101 16.5829 6.45066 16.5402 6.4992C16.4976 6.54775 16.4649 6.60425 16.4441 6.66545C16.4234 6.72665 16.4149 6.79134 16.4192 6.85583V7.25166C16.4193 8.19697 16.2023 9.12969 15.7851 9.97793C15.3678 10.8262 14.7614 11.5673 14.0125 12.1442L13.8067 12.3025C12.9987 12.9176 12.0519 13.3246 11.0496 13.4875C10.0473 13.6504 9.02032 13.5643 8.05917 13.2367C7.98725 13.2125 7.90942 13.2125 7.8375 13.2367C7.74814 13.2909 7.68085 13.3751 7.6475 13.4742L6.33334 17.6067C6.28753 17.7474 6.29826 17.9005 6.36327 18.0334C6.42828 18.1664 6.54246 18.2689 6.68167 18.3192L6.96667 18.3983Z" fill="black"/>
<path d="M19 24.5417C17.904 24.5417 16.8325 24.2167 15.9212 23.6077C15.0099 22.9988 14.2996 22.1333 13.8802 21.1207C13.4607 20.1081 13.351 18.9938 13.5648 17.9189C13.7786 16.8439 14.3064 15.8565 15.0814 15.0814C15.8565 14.3064 16.8439 13.7786 17.9189 13.5648C18.9938 13.351 20.1081 13.4607 21.1207 13.8802C22.1333 14.2996 22.9988 15.0099 23.6077 15.9212C24.2167 16.8325 24.5417 17.904 24.5417 19C24.5417 20.4697 23.9578 21.8793 22.9185 22.9185C21.8793 23.9578 20.4697 24.5417 19 24.5417V24.5417ZM19 16.625C18.5303 16.625 18.0711 16.7643 17.6805 17.0253C17.29 17.2862 16.9855 17.6572 16.8058 18.0911C16.626 18.5251 16.579 19.0026 16.6706 19.4633C16.7623 19.924 16.9885 20.3472 17.3206 20.6794C17.6528 21.0115 18.076 21.2377 18.5367 21.3294C18.9974 21.421 19.4749 21.374 19.9089 21.1942C20.3428 21.0145 20.7138 20.71 20.9747 20.3195C21.2357 19.9289 21.375 19.4697 21.375 19C21.375 18.3701 21.1248 17.766 20.6794 17.3206C20.234 16.8752 19.6299 16.625 19 16.625Z" fill="black"/>
</g>
</svg>
