<svg fill="#000000" xmlns="http://www.w3.org/2000/svg" viewBox="0 0 24 24" width="38" height="38"><path d="M 5 3 C 3.9069372 3 3 3.9069372 3 5 L 3 19 C 3 20.093063 3.9069372 21 5 21 L 19 21 C 20.093063 21 21 20.093063 21 19 L 21 5 C 21 3.9069372 20.093063 3 19 3 L 5 3 z M 5 5 L 19 5 L 19 19 L 5 19 L 5 5 z M 12 6 C 10.35499 6 9 7.3549904 9 9 C 9 10.64501 10.35499 12 12 12 C 13.64501 12 15 10.64501 15 9 C 15 7.3549904 13.64501 6 12 6 z M 12 8 C 12.564129 8 13 8.4358706 13 9 C 13 9.5641294 12.564129 10 12 10 C 11.435871 10 11 9.5641294 11 9 C 11 8.4358706 11.435871 8 12 8 z M 12 13 C 10.523552 13 9.1652139 13.232561 8.0800781 13.699219 C 7.5375102 13.932548 7.0571732 14.224793 6.671875 14.630859 C 6.2865768 15.036925 6 15.600679 6 16.216797 L 6 18 L 18 18 L 18 17 L 18 16.216797 C 18 15.600679 17.713423 15.036925 17.328125 14.630859 C 16.942827 14.224793 16.46249 13.932548 15.919922 13.699219 C 14.834786 13.232561 13.476448 13 12 13 z M 12 15 C 13.254552 15 14.396792 15.222267 15.128906 15.537109 C 15.489132 15.692023 15.737639 15.868357 15.865234 16 L 8.1347656 16 C 8.2623607 15.868357 8.510868 15.692023 8.8710938 15.537109 C 9.6032079 15.222267 10.745448 15 12 15 z"/></svg>