<svg width="24" height="24" viewBox="0 0 24 24" fill="none" xmlns="http://www.w3.org/2000/svg">
<path d="M19.3827 4.14239H19.3782C19.3784 4.13063 19.3818 4.11959 19.3818 4.10759C19.3818 3.77391 19.2493 3.45387 19.0134 3.21783C18.7775 2.98178 18.4576 2.84905 18.1239 2.84879C18.1143 2.84879 18.1057 2.85143 18.0961 2.85167H14.6022V2.03471C14.6022 1.82327 14.4308 1.65239 14.2198 1.65191V1.64999H9.79207V1.65143C9.78847 1.65143 9.78535 1.65047 9.78175 1.65047C9.57055 1.65047 9.39919 1.82159 9.39919 2.03303L9.39991 2.04023V2.85143H5.88031L5.87551 2.85095C5.54192 2.85134 5.22211 2.98404 4.98625 3.21994C4.75039 3.45585 4.61775 3.77569 4.61743 4.10927C4.61743 4.12055 4.62055 4.13087 4.62079 4.14215H4.61743V21.0794H4.61815L4.61743 21.0859C4.61749 21.2511 4.65009 21.4146 4.71337 21.5672C4.77664 21.7198 4.86935 21.8584 4.9862 21.9751C5.10305 22.0919 5.24175 22.1844 5.39438 22.2476C5.54701 22.3107 5.71058 22.3431 5.87575 22.343C5.89447 22.343 5.91199 22.3382 5.93071 22.3375V22.3426H18.0507C18.0742 22.3438 18.0966 22.3495 18.1203 22.3495C18.4537 22.3495 18.7735 22.217 19.0092 21.9813C19.245 21.7455 19.3775 21.4258 19.3777 21.0924C19.3777 21.0878 19.3765 21.0838 19.3765 21.0792H19.3832V4.14239H19.3827ZM16.9974 19.9644H7.00279V5.23415H8.20207V5.97071C8.20159 5.97863 8.19967 5.98583 8.19967 5.99399C8.19967 6.23351 8.39407 6.42935 8.63503 6.42935L8.63839 6.42911V6.43103H15.3649C15.4802 6.43091 15.5908 6.38502 15.6724 6.30345C15.754 6.22188 15.7999 6.11128 15.8 5.99591C15.8 5.99231 15.799 5.98895 15.799 5.98535V5.23415H16.9971V19.9644H16.9974Z" fill="#282828"/>
<path d="M9.3961 9.86856C9.3961 9.71064 9.26722 9.58176 9.10858 9.58176C9.10114 9.58176 9.09466 9.58536 9.08746 9.58608V9.58176H8.48698C8.41076 9.58182 8.33768 9.61209 8.28374 9.66594C8.2298 9.71979 8.19941 9.79282 8.19922 9.86904V10.4923C8.19922 10.6498 8.3281 10.7786 8.48698 10.7786H9.0877V10.7743C9.0949 10.7748 9.10114 10.7786 9.10834 10.7786C9.26746 10.7786 9.39634 10.6498 9.39634 10.4923V9.86904H9.3961V9.86856V9.86856Z" fill="#282828"/>
<path d="M15.7993 9.86856C15.7993 9.71064 15.6705 9.58176 15.5118 9.58176H10.8808C10.8046 9.58182 10.7315 9.61209 10.6775 9.66594C10.6236 9.71979 10.5932 9.79282 10.593 9.86904V10.4923C10.593 10.6498 10.7219 10.7786 10.8808 10.7786H15.5116C15.6707 10.7786 15.7996 10.6498 15.7996 10.4923V9.86904H15.7993V9.86856Z" fill="#282828"/>
<path d="M9.3961 12.2626C9.3961 12.1046 9.26722 11.9758 9.10858 11.9758C9.10114 11.9758 9.09466 11.9794 9.08746 11.9801V11.9758H8.48698C8.41076 11.9758 8.33768 12.0061 8.28374 12.06C8.2298 12.1138 8.19941 12.1868 8.19922 12.263V12.8863C8.19922 13.0438 8.3281 13.1726 8.48698 13.1726H9.0877V13.1683C9.0949 13.1688 9.10114 13.1726 9.10834 13.1726C9.26746 13.1726 9.39634 13.0438 9.39634 12.8863V12.263H9.3961V12.2626V12.2626Z" fill="#282828"/>
<path d="M15.7993 12.2626C15.7993 12.1046 15.6705 11.9758 15.5118 11.9758H10.8808C10.8046 11.9758 10.7315 12.0061 10.6775 12.06C10.6236 12.1138 10.5932 12.1868 10.593 12.263V12.8863C10.593 13.0438 10.7219 13.1726 10.8808 13.1726H15.5116C15.6707 13.1726 15.7996 13.0438 15.7996 12.8863V12.263H15.7993V12.2626Z" fill="#282828"/>
<path d="M9.3961 14.6566C9.3961 14.4986 9.26722 14.3698 9.10858 14.3698C9.10114 14.3698 9.09466 14.3734 9.08746 14.3741V14.3698H8.48698C8.41076 14.3698 8.33768 14.4001 8.28374 14.4539C8.2298 14.5078 8.19941 14.5808 8.19922 14.657V15.2803C8.19922 15.4378 8.3281 15.5666 8.48698 15.5666H9.0877V15.5623C9.0949 15.5628 9.10114 15.5666 9.10834 15.5666C9.26746 15.5666 9.39634 15.4378 9.39634 15.2803V14.657H9.3961V14.6566V14.6566Z" fill="#282828"/>
<path d="M15.7993 14.6566C15.7993 14.4986 15.6705 14.3698 15.5118 14.3698H10.8808C10.8046 14.3698 10.7315 14.4001 10.6775 14.4539C10.6236 14.5078 10.5932 14.5808 10.593 14.657V15.2803C10.593 15.4378 10.7219 15.5666 10.8808 15.5666H15.5116C15.6707 15.5666 15.7996 15.4378 15.7996 15.2803V14.657H15.7993V14.6566Z" fill="#282828"/>
</svg>
