<svg width="24" height="24" viewBox="0 0 38 38" fill="none" xmlns="http://www.w3.org/2000/svg">
<g>
<path id="business_case" d="M15.6667 4H22C22.8399 4 23.6453 4.33363 24.2392 4.9275C24.833 5.52136 25.1667 6.32681 25.1667 7.16667V10.3333H31.5C32.3399 10.3333 33.1453 10.667 33.7392 11.2608C34.333 11.8547 34.6667 12.6601 34.6667 13.5L31.5 16.6667V13.5H6.16667V30.9167H17.25V34.0833H6.16667C5.32681 34.0833 4.52136 33.7497 3.9275 33.1558C3.33363 32.562 3 31.7565 3 30.9167V13.5C3 12.6601 3.33363 11.8547 3.9275 11.2608C4.52136 10.667 5.32681 10.3333 6.16667 10.3333H12.5V7.16667C12.5 6.32681 12.8336 5.52136 13.4275 4.9275C14.0214 4.33363 14.8268 4 15.6667 4ZM22 10.3333V7.16667H15.6667V10.3333H22Z" fill="black"/>
<path id="business_pen" d="M32.5633 18.8333C32.785 18.8333 32.9908 18.9283 33.165 19.1025L35.1917 21.1292C35.54 21.4617 35.54 22.0158 35.1917 22.3483L33.6083 23.9317L30.3625 20.6858L31.9458 19.1025C32.12 18.9283 32.3417 18.8333 32.5633 18.8333ZM29.4442 21.6042L32.69 24.85L23.095 34.4608H19.8333V31.1992L29.4442 21.6042Z" fill="black"/>
</g>
</svg>
