<svg id="calculate" width="22" height="22" viewBox="0 0 22 22" fill="none" xmlns="http://www.w3.org/2000/svg">
<path d="M17.4167 2.75H4.58333C3.575 2.75 2.75 3.575 2.75 4.58333V17.4167C2.75 18.425 3.575 19.25 4.58333 19.25H17.4167C18.425 19.25 19.25 18.425 19.25 17.4167V4.58333C19.25 3.575 18.425 2.75 17.4167 2.75ZM17.4167 17.4167H4.58333V4.58333H17.4167V17.4167Z" fill="black"/>
<path d="M5.72917 7.07667H10.3125V8.45167H5.72917V7.07667ZM11.9167 14.4375H16.5V15.8125H11.9167V14.4375ZM11.9167 12.1458H16.5V13.5208H11.9167V12.1458ZM7.33333 16.5H8.70833V14.6667H10.5417V13.2917H8.70833V11.4583H7.33333V13.2917H5.5V14.6667H7.33333V16.5ZM12.9158 10.0375L14.2083 8.745L15.5008 10.0375L16.4725 9.06583L15.18 7.76417L16.4725 6.47167L15.5008 5.5L14.2083 6.7925L12.9158 5.5L11.9442 6.47167L13.2367 7.76417L11.9442 9.06583L12.9158 10.0375Z" fill="black"/>
</svg>
