<svg id="cross" width="16" height="16" viewBox="0 0 16 16" fill="none" xmlns="http://www.w3.org/2000/svg">
<path id="circle" d="M8 13.3333C5.06 13.3333 2.66667 10.94 2.66667 8C2.66667 5.06 5.06 2.66667 8 2.66667C10.94 2.66667 13.3333 5.06 13.3333 8C13.3333 10.94 10.94 13.3333 8 13.3333ZM8 1.33333C4.31333 1.33333 1.33333 4.31333 1.33333 8C1.33333 11.6867 4.31333 14.6667 8 14.6667C11.6867 14.6667 14.6667 11.6867 14.6667 8C14.6667 4.31333 11.6867 1.33333 8 1.33333Z"/>
<path id="mark" d="M9.72667 5.33333L8 7.06L6.27333 5.33333L5.33333 6.27333L7.06 8L5.33333 9.72667L6.27333 10.6667L8 8.94L9.72667 10.6667L10.6667 9.72667L8.94 8L10.6667 6.27333L9.72667 5.33333Z"/>
</svg>
