<svg width="24" height="24" viewBox="0 0 38 38" fill="none" xmlns="http://www.w3.org/2000/svg">
<g id="help-desk">
<path id="help-desk__book" fill-rule="evenodd" clip-rule="evenodd" d="M4.75 7.91666V29.2917C4.75 30.7614 5.33385 32.171 6.37312 33.2102C7.41238 34.2495 8.82193 34.8333 10.2917 34.8333H31.6667C32.0866 34.8333 32.4893 34.6665 32.7863 34.3696C33.0832 34.0727 33.25 33.6699 33.25 33.25V4.75C33.25 4.33007 33.0832 3.92734 32.7863 3.63041C32.4893 3.33348 32.0866 3.16666 31.6667 3.16666H9.5C8.24022 3.16666 7.03204 3.66711 6.14124 4.55791C5.25045 5.4487 4.75 6.65689 4.75 7.91666ZM10.2917 26.9167H30.0833V31.6667H10.2917C9.66178 31.6667 9.05769 31.4164 8.61229 30.971C8.16689 30.5256 7.91667 29.9216 7.91667 29.2917C7.91667 28.6618 8.16689 28.0577 8.61229 27.6123C9.05769 27.1669 9.66178 26.9167 10.2917 26.9167ZM9.5 6.33333H15.8333H26.9167H30.0833V23.75H10.2917C9.47016 23.7489 8.65876 23.9312 7.91667 24.2836V7.91666C7.91667 7.49674 8.08348 7.09401 8.38041 6.79708C8.67735 6.50015 9.08007 6.33333 9.5 6.33333Z" fill="black"/>
<path id="help-desk__bookmark" d="M27 6H19V16L23 14.3333L27 16V6Z" fill="black"/>
</g>
</svg>
