<?xml version="1.0" encoding="UTF-8"?>
<svg xmlns="http://www.w3.org/2000/svg" xmlns:xlink="http://www.w3.org/1999/xlink" width="24pt" height="24pt" viewBox="0 0 24 24" version="1.1">
<g id="surface11692133">
<path style=" stroke:none;fill-rule:nonzero;fill:rgb(0%,0%,0%);fill-opacity:1;" d="M 2 4 L 2 18 C 2 19.105469 2.894531 20 4 20 L 10.277344 20 C 10.625 20.59375 11.261719 21 12 21 C 12.738281 21 13.375 20.59375 13.722656 20 L 20 20 C 21.105469 20 22 19.105469 22 18 L 22 4 L 14 4 C 13.226562 4 12.53125 4.300781 12 4.78125 C 11.46875 4.300781 10.773438 4 10 4 Z M 4 6 L 10 6 C 10.550781 6 11 6.449219 11 7 L 11 18 L 4 18 Z M 14 6 L 20 6 L 20 18 L 13 18 L 13 7 C 13 6.449219 13.449219 6 14 6 Z M 6 8 L 6 10 L 9 10 L 9 8 Z M 15 8 L 15 10 L 18 10 L 18 8 Z M 6 11 L 6 13 L 9 13 L 9 11 Z M 15 11 L 15 13 L 18 13 L 18 11 Z M 6 14 L 6 16 L 9 16 L 9 14 Z M 6 14 "/>
</g>
</svg>
