<svg width="200" height="79" viewBox="0 0 200 79" fill="none" xmlns="http://www.w3.org/2000/svg">
    <path d="M0 0H78.6517V26.3334H26.2173V79H0V0Z"/>
    <path d="M45.8802 46.0834H78.6517V79H45.8802V46.0834Z"/>
    <path d="M100.413 5.62611H94.54V21.6686H90.5899V5.62611H84.7964V2.41232H100.413V5.62611ZM111.123 14.6194H107.976V21.6686H104.026V2.41232H111.149C113.414 2.41232 115.161 2.9193 116.39 3.93325C117.618 4.94721 118.233 6.37995 118.233 8.23153C118.233 9.54525 117.948 10.6429 117.377 11.5247C116.815 12.3975 115.96 13.0941 114.809 13.6143L118.957 21.4834V21.6686H114.717L111.123 14.6194ZM107.976 11.4056H111.162C112.154 11.4056 112.922 11.1543 113.466 10.6518C114.011 10.1404 114.283 9.43944 114.283 8.54893C114.283 7.64079 114.024 6.92661 113.506 6.4064C112.997 5.8862 112.211 5.62611 111.149 5.62611H107.976V11.4056ZM133.42 17.7009H126.494L125.177 21.6686H120.977L128.113 2.41232H131.774L138.95 21.6686H134.75L133.42 17.7009ZM127.561 14.4872H132.353L129.944 7.27929L127.561 14.4872ZM146.289 21.6686H142.339V2.41232H146.289V21.6686ZM166.901 21.6686H162.951L155.262 8.9986V21.6686H151.311V2.41232H155.262L162.964 15.1088V2.41232H166.901V21.6686ZM90.1818 48.7543H86.2314V29.4981H90.1818V48.7543ZM110.793 48.7543H106.843L99.1537 36.0843V48.7543H95.2036V29.4981H99.1537L106.857 42.1946V29.4981H110.793V48.7543ZM85.9813 75.84V56.5839H92.6966C95.0229 56.5839 96.7872 57.0335 97.9899 57.9327C99.1923 58.8232 99.7937 60.1325 99.7937 61.8606C99.7937 62.8041 99.5523 63.6374 99.0694 64.3604C98.5867 65.0746 97.9153 65.5991 97.055 65.9341C98.0382 66.181 98.8105 66.6792 99.3723 67.4285C99.9429 68.1781 100.228 69.095 100.228 70.1795C100.228 72.0311 99.64 73.433 98.4638 74.3853C97.2876 75.3373 95.611 75.8224 93.4339 75.84H85.9813ZM89.9314 67.4552V72.6527H93.3155C94.2461 72.6527 94.9701 72.4322 95.4881 71.9913C96.0148 71.5417 96.2782 70.9246 96.2782 70.1398C96.2782 68.3765 95.3696 67.4816 93.5526 67.4552H89.9314ZM89.9314 64.6513H92.8546C94.8472 64.6159 95.8436 63.818 95.8436 62.2574C95.8436 61.3846 95.589 60.7587 95.0798 60.3795C94.5795 59.9915 93.7852 59.7976 92.6966 59.7976H89.9314V64.6513ZM108.502 72.6527H116.89V75.84H104.552V56.5839H108.502V72.6527ZM135.421 66.6482C135.421 68.544 135.088 70.2059 134.421 71.6343C133.753 73.0626 132.797 74.1647 131.55 74.9408C130.313 75.7165 128.89 76.1045 127.284 76.1045C125.695 76.1045 124.278 75.721 123.031 74.9538C121.784 74.1869 120.819 73.0935 120.134 71.674C119.45 70.2457 119.103 68.6056 119.094 66.7541V65.8018C119.094 63.9063 119.432 62.2398 120.108 60.8027C120.793 59.3568 121.754 58.2501 122.991 57.4831C124.238 56.7071 125.66 56.3193 127.258 56.3193C128.855 56.3193 130.273 56.7071 131.511 57.4831C132.757 58.2501 133.718 59.3568 134.394 60.8027C135.079 62.2398 135.421 63.9017 135.421 65.7887V66.6482ZM131.418 65.7754C131.418 63.7564 131.059 62.2222 130.339 61.1731C129.619 60.1237 128.592 59.5992 127.258 59.5992C125.932 59.5992 124.91 60.1194 124.19 61.1598C123.47 62.1913 123.106 63.7079 123.097 65.7093V66.6482C123.097 68.6144 123.457 70.1398 124.177 71.2244C124.896 72.3087 125.932 72.8511 127.284 72.8511C128.609 72.8511 129.628 72.3308 130.339 71.2905C131.05 70.2411 131.41 68.716 131.418 66.7144V65.7754ZM154.69 69.4256C154.541 71.4977 153.777 73.1287 152.399 74.3191C151.03 75.5093 149.221 76.1045 146.974 76.1045C144.516 76.1045 142.581 75.2757 141.167 73.6181C139.763 71.9516 139.061 69.6681 139.061 66.7674V65.5903C139.061 63.7388 139.386 62.1075 140.035 60.6968C140.685 59.2861 141.611 58.2061 142.813 57.4567C144.025 56.6983 145.429 56.3193 147.027 56.3193C149.239 56.3193 151.021 56.9143 152.373 58.1047C153.724 59.2949 154.506 60.9659 154.716 63.1172H150.766C150.67 61.8739 150.323 60.9747 149.726 60.4192C149.138 59.8549 148.238 59.5728 147.027 59.5728C145.71 59.5728 144.723 60.0488 144.064 61.0011C143.415 61.9446 143.081 63.4124 143.064 65.4052V66.86C143.064 68.9408 143.375 70.4617 143.998 71.4228C144.63 72.3839 145.622 72.8642 146.974 72.8642C148.194 72.8642 149.103 72.5865 149.7 72.0311C150.305 71.4668 150.652 70.5982 150.74 69.4256H154.69ZM164.637 68.1163L162.582 70.3382V75.84H158.632V56.5839H162.582V65.3125L164.321 62.9188L169.206 56.5839H174.064L167.257 65.1407L174.262 75.84H169.561L164.637 68.1163ZM187.039 70.7878C187.039 70.0385 186.776 69.4654 186.249 69.0686C185.722 68.663 184.774 68.2397 183.405 67.7989C182.036 67.3493 180.951 66.9085 180.153 66.4765C177.976 65.2948 176.887 63.7033 176.887 61.7019C176.887 60.6616 177.177 59.7357 177.756 58.9247C178.344 58.1047 179.183 57.4655 180.271 57.0068C181.369 56.5484 182.598 56.3193 183.958 56.3193C185.327 56.3193 186.548 56.5705 187.618 57.073C188.689 57.5668 189.519 58.2677 190.107 59.176C190.704 60.084 191.002 61.1157 191.002 62.2707H187.052C187.052 61.3891 186.776 60.7056 186.223 60.2208C185.67 59.7269 184.893 59.4802 183.892 59.4802C182.927 59.4802 182.176 59.6874 181.641 60.1016C181.105 60.5072 180.838 61.0451 180.838 61.7152C180.838 62.3412 181.149 62.8659 181.772 63.2892C182.404 63.7124 183.33 64.1089 184.551 64.4793C186.798 65.1583 188.435 66.0002 189.462 67.0053C190.489 68.0104 191.002 69.2625 191.002 70.7614C191.002 72.4279 190.375 73.7372 189.12 74.6893C187.864 75.6328 186.175 76.1045 184.05 76.1045C182.575 76.1045 181.232 75.8355 180.021 75.2978C178.81 74.7511 177.884 74.0061 177.243 73.0626C176.611 72.1193 176.295 71.026 176.295 69.7827H180.258C180.258 71.9076 181.522 72.97 184.05 72.97C184.989 72.97 185.722 72.7804 186.249 72.4015C186.776 72.0135 187.039 71.4756 187.039 70.7878Z"/>
</svg>
