<svg width="96" height="96" viewBox="0 0 96 96" fill="none" xmlns="http://www.w3.org/2000/svg">
<path d="M81.88 22.52C83.44 24.08 83.44 26.56 81.88 28.12L36.52 73.48C36.1539 73.8506 35.7179 74.1448 35.2372 74.3456C34.7566 74.5464 34.2409 74.6498 33.72 74.6498C33.1991 74.6498 32.6834 74.5464 32.2027 74.3456C31.7221 74.1448 31.2861 73.8506 30.92 73.48L14.12 56.68C13.7494 56.3139 13.4552 55.8779 13.2544 55.3973C13.0536 54.9166 12.9502 54.4009 12.9502 53.88C12.9502 53.3591 13.0536 52.8434 13.2544 52.3627C13.4552 51.8821 13.7494 51.4461 14.12 51.08C14.4861 50.7094 14.9221 50.4152 15.4027 50.2144C15.8834 50.0136 16.3991 49.9102 16.92 49.9102C17.4409 49.9102 17.9566 50.0136 18.4372 50.2144C18.9179 50.4152 19.3539 50.7094 19.72 51.08L33.72 65.08L76.28 22.52C76.6461 22.1494 77.0821 21.8552 77.5627 21.6544C78.0434 21.4536 78.5591 21.3502 79.08 21.3502C79.6009 21.3502 80.1166 21.4536 80.5972 21.6544C81.0779 21.8552 81.5139 22.1494 81.88 22.52V22.52ZM73.44 14.04L33.72 53.76L22.56 42.6C19.44 39.48 14.36 39.48 11.24 42.6L5.63999 48.2C2.51999 51.32 2.51999 56.4 5.63999 59.52L28.04 81.92C31.16 85.04 36.24 85.04 39.36 81.92L90.36 30.96C93.48 27.84 93.48 22.76 90.36 19.64L84.76 14.04C81.6 10.92 76.56 10.92 73.44 14.04V14.04Z" fill="black"/>
</svg>
