<svg width="38" height="38" viewBox="0 0 16 16" fill="none" xmlns="http://www.w3.org/2000/svg">
    <path d="M11.9999 14.6667L5.99992 14.6667C5.6463 14.6667 5.30716 14.5262 5.05711 14.2761C4.80706 14.0261 4.66659 13.687 4.66659 13.3333V12H5.99992V13.3333H11.9999L11.9999 2.66667L5.99992 2.66667L5.99992 4H4.66659V2.66667C4.66659 2.31305 4.80706 1.97391 5.05711 1.72386C5.30716 1.47381 5.6463 1.33334 5.99992 1.33334L11.9999 1.33334C12.3535 1.33334 12.6927 1.47381 12.9427 1.72386C13.1928 1.97391 13.3333 2.31305 13.3333 2.66667L13.3333 13.3333C13.3333 13.687 13.1928 14.0261 12.9427 14.2761C12.6927 14.5262 12.3535 14.6667 11.9999 14.6667V14.6667Z"/>
    <path d="M5.27333 5.60666L4.33333 4.66666L1 7.99999L4.33333 11.3333L5.27333 10.3933L3.55333 8.66666H10V7.33333L3.55333 7.33333L5.27333 5.60666Z"/>
</svg>
