<svg width="24" height="24" viewBox="0 0 38 38" fill="none" xmlns="http://www.w3.org/2000/svg">
<g id="logout">
<path id="logout__base" d="M28.4998 34.8334H14.2498C13.41 34.8334 12.6045 34.4997 12.0106 33.9057C11.4168 33.312 11.0832 32.5066 11.0832 31.6666V28.5H14.2498V31.6666H28.4998V6.33334H14.2498V9.5H11.0832V6.33334C11.0832 5.49349 11.4168 4.68803 12.0106 4.09416C12.6045 3.5003 13.41 3.16668 14.2498 3.16668H28.4998C29.3396 3.16668 30.1452 3.5003 30.7389 4.09416C31.3329 4.68803 31.6666 5.49349 31.6666 6.33334V31.6666C31.6666 32.5066 31.3329 33.312 30.7389 33.9057C30.1452 34.4997 29.3396 34.8334 28.4998 34.8334Z" fill="black"/>
<path id="logout__arrow" d="M12.5242 13.3158L10.2917 11.0833L2.375 19L10.2917 26.9166L12.5242 24.6841L8.43916 20.5833H23.75V17.4167H8.43916L12.5242 13.3158Z" fill="black"/>
</g>
</svg>
