<svg width="16" height="16" viewBox="0 0 16 16" fill="none" xmlns="http://www.w3.org/2000/svg">
<g id="move">
<path id="box_two" d="M6 9.5H3L3 6.5H6V9.5ZM7 10.5V5.5H2V10.5H7Z" fill="black"/>
<g id="box_one">
<path id="Vector" d="M14 5.5V7H13V5.5H14Z" fill="black"/>
<path id="Vector_2" d="M14 7.5V9H13V7.5H14Z" fill="black"/>
<path id="Vector_3" d="M14 9.5V10.5H12.5V9.5H14Z" fill="black"/>
<path id="Vector_4" d="M10.5 5.5V6.5H9V5.5H10.5Z" fill="black"/>
<path id="Vector_5" d="M10 7V8.5H9V7H10Z" fill="black"/>
<path id="Vector_6" d="M10 9V10.5H9V9H10Z" fill="black"/>
<path id="Vector_7" d="M12.5 5.5V6.5H11V5.5H12.5Z" fill="black"/>
<path id="Vector_8" d="M12 9.5V10.5H10.5V9.5H12Z" fill="black"/>
</g>
</g>
</svg>
