<svg width="20" height="20" viewBox="0 0 16 16" fill="none" xmlns="http://www.w3.org/2000/svg">
<g id="options">
<g>
<path d="M11.5 8C11.5 8.39556 11.6173 8.78224 11.8371 9.11114C12.0568 9.44004 12.3692 9.69638 12.7346 9.84776C13.1001 9.99913 13.5022 10.0387 13.8902 9.96157C14.2781 9.8844 14.6345 9.69392 14.9142 9.41421C15.1939 9.13451 15.3844 8.77814 15.4616 8.39018C15.5387 8.00222 15.4991 7.60009 15.3478 7.23463C15.1964 6.86918 14.94 6.55682 14.6111 6.33706C14.2822 6.1173 13.8956 6 13.5 6C12.9697 6.0006 12.4614 6.2115 12.0864 6.58644C11.7115 6.96139 11.5006 7.46975 11.5 8ZM14.5 8C14.5 8.19778 14.4414 8.39112 14.3315 8.55557C14.2216 8.72002 14.0654 8.84819 13.8827 8.92388C13.7 8.99957 13.4989 9.01937 13.3049 8.98079C13.1109 8.9422 12.9327 8.84696 12.7929 8.70711C12.653 8.56725 12.5578 8.38907 12.5192 8.19509C12.4806 8.00111 12.5004 7.80004 12.5761 7.61732C12.6518 7.43459 12.78 7.27841 12.9444 7.16853C13.1089 7.05865 13.3022 7 13.5 7C13.7651 7.0003 14.0193 7.10575 14.2068 7.29322C14.3942 7.48069 14.4997 7.73487 14.5 8Z" fill="#282828"/>
<path d="M4.5 8C4.5 7.60444 4.3827 7.21776 4.16294 6.88886C3.94318 6.55996 3.63082 6.30362 3.26537 6.15224C2.89991 6.00087 2.49778 5.96126 2.10982 6.03843C1.72186 6.1156 1.36549 6.30608 1.08579 6.58579C0.806082 6.86549 0.6156 7.22186 0.538429 7.60982C0.461259 7.99778 0.500865 8.39992 0.652241 8.76537C0.803616 9.13082 1.05996 9.44318 1.38886 9.66294C1.71776 9.8827 2.10444 10 2.5 10C3.03025 9.99941 3.53861 9.7885 3.91356 9.41356C4.2885 9.03861 4.4994 8.53025 4.5 8ZM1.5 8C1.5 7.80222 1.55865 7.60888 1.66853 7.44443C1.77841 7.27998 1.93459 7.15181 2.11732 7.07612C2.30004 7.00043 2.50111 6.98063 2.69509 7.01922C2.88907 7.0578 3.06725 7.15304 3.20711 7.29289C3.34696 7.43275 3.4422 7.61093 3.48079 7.80491C3.51937 7.99889 3.49957 8.19996 3.42388 8.38268C3.34819 8.56541 3.22002 8.72159 3.05557 8.83147C2.89112 8.94135 2.69778 9 2.5 9C2.23487 8.9997 1.98069 8.89425 1.79322 8.70678C1.60575 8.51931 1.5003 8.26513 1.5 8Z" fill="#282828"/>
<path d="M10 8C10 7.60444 9.8827 7.21776 9.66294 6.88886C9.44318 6.55996 9.13082 6.30362 8.76537 6.15224C8.39991 6.00087 7.99778 5.96126 7.60982 6.03843C7.22186 6.1156 6.86549 6.30608 6.58579 6.58579C6.30608 6.86549 6.1156 7.22186 6.03843 7.60982C5.96126 7.99778 6.00087 8.39992 6.15224 8.76537C6.30362 9.13082 6.55996 9.44318 6.88886 9.66294C7.21776 9.8827 7.60444 10 8 10C8.53025 9.99941 9.03861 9.7885 9.41356 9.41356C9.7885 9.03861 9.9994 8.53025 10 8V8ZM7 8C7 7.80222 7.05865 7.60888 7.16853 7.44443C7.27841 7.27998 7.43459 7.15181 7.61732 7.07612C7.80004 7.00043 8.00111 6.98063 8.19509 7.01922C8.38907 7.0578 8.56725 7.15304 8.70711 7.29289C8.84696 7.43275 8.9422 7.61093 8.98079 7.80491C9.01937 7.99889 8.99957 8.19996 8.92388 8.38268C8.84819 8.56541 8.72002 8.72159 8.55557 8.83147C8.39112 8.94135 8.19778 9 8 9C7.73487 8.9997 7.48069 8.89425 7.29322 8.70678C7.10575 8.51931 7.0003 8.26513 7 8Z" fill="#282828"/>
</g>
</g>
</svg>
