<svg id="print" width="16" height="16" viewBox="0 0 16 16" fill="none" xmlns="http://www.w3.org/2000/svg">
<path id="arrow_right" d="M13.9467 10.4133C13.9129 10.3325 13.8656 10.2581 13.8067 10.1933L11.8067 8.19333C11.6811 8.0678 11.5109 7.99727 11.3333 7.99727C11.1558 7.99727 10.9855 8.0678 10.86 8.19333C10.7345 8.31887 10.6639 8.48913 10.6639 8.66667C10.6639 8.8442 10.7345 9.01446 10.86 9.14L11.7267 10H8C7.82319 10 7.65362 10.0702 7.5286 10.1953C7.40357 10.3203 7.33333 10.4899 7.33333 10.6667C7.33333 10.8435 7.40357 11.013 7.5286 11.1381C7.65362 11.2631 7.82319 11.3333 8 11.3333H11.7267L10.86 12.1933C10.7975 12.2553 10.7479 12.329 10.7141 12.4103C10.6802 12.4915 10.6628 12.5787 10.6628 12.6667C10.6628 12.7547 10.6802 12.8418 10.7141 12.9231C10.7479 13.0043 10.7975 13.078 10.86 13.14C10.922 13.2025 10.9957 13.2521 11.0769 13.2859C11.1582 13.3198 11.2453 13.3372 11.3333 13.3372C11.4213 13.3372 11.5085 13.3198 11.5897 13.2859C11.671 13.2521 11.7447 13.2025 11.8067 13.14L13.8067 11.14C13.8684 11.0774 13.9161 11.0024 13.9467 10.92C14.0133 10.7577 14.0133 10.5756 13.9467 10.4133Z" fill="black"/>
<path id="paper" d="M9.33333 13.3333H4C3.82319 13.3333 3.65362 13.2631 3.5286 13.1381C3.40357 13.013 3.33333 12.8435 3.33333 12.6667V3.33333C3.33333 3.15652 3.40357 2.98695 3.5286 2.86193C3.65362 2.73691 3.82319 2.66667 4 2.66667H7.33333V4.66667C7.33333 5.1971 7.54405 5.70581 7.91912 6.08088C8.29419 6.45595 8.8029 6.66667 9.33333 6.66667H12C12.1316 6.66601 12.2601 6.62641 12.3692 6.55285C12.4784 6.4793 12.5633 6.37508 12.6133 6.25333C12.6644 6.13193 12.6783 5.99812 12.6534 5.86879C12.6285 5.73947 12.5658 5.62042 12.4733 5.52667L8.47333 1.52667C8.41822 1.47481 8.35521 1.43205 8.28667 1.4H8.22667L8.04 1.33333H4C3.46957 1.33333 2.96086 1.54405 2.58579 1.91912C2.21071 2.29419 2 2.8029 2 3.33333V12.6667C2 13.1971 2.21071 13.7058 2.58579 14.0809C2.96086 14.456 3.46957 14.6667 4 14.6667H9.33333C9.51014 14.6667 9.67971 14.5964 9.80474 14.4714C9.92976 14.3464 10 14.1768 10 14C10 13.8232 9.92976 13.6536 9.80474 13.5286C9.67971 13.4036 9.51014 13.3333 9.33333 13.3333ZM8.66667 3.60667L10.3933 5.33333H9.33333C9.15652 5.33333 8.98695 5.2631 8.86193 5.13807C8.7369 5.01305 8.66667 4.84348 8.66667 4.66667V3.60667Z" fill="black"/>
</svg>
