<?xml version="1.0" encoding="UTF-8"?>
<svg xmlns="http://www.w3.org/2000/svg" xmlns:xlink="http://www.w3.org/1999/xlink" width="36" height="36" viewBox="0 0 36 36" version="1.1">
<g id="surface3392644">
<path style=" stroke:none;fill-rule:nonzero;fill:rgb(0%,0%,0%);fill-opacity:1;" d="M 18 1.5 C 16.042969 1.5 14.394531 2.753906 13.777344 4.5 L 7.5 4.5 C 5.84375 4.5 4.5 5.84375 4.5 7.5 L 4.5 28.5 C 4.5 30.15625 5.84375 31.5 7.5 31.5 L 28.5 31.5 C 30.15625 31.5 31.5 30.15625 31.5 28.5 L 31.5 7.5 C 31.5 5.84375 30.15625 4.5 28.5 4.5 L 22.226562 4.5 C 21.605469 2.753906 19.957031 1.5 18 1.5 Z M 18 4.5 C 18.828125 4.5 19.5 5.171875 19.5 6 C 19.5 6.828125 18.828125 7.5 18 7.5 L 28.5 7.5 L 28.5 28.5 L 7.5 28.5 L 7.5 7.5 L 18 7.5 C 17.171875 7.5 16.5 6.828125 16.5 6 C 16.5 5.171875 17.171875 4.5 18 4.5 Z M 10.5 10.5 L 10.5 13.5 L 25.5 13.5 L 25.5 10.5 Z M 10.5 16.5 L 10.5 19.5 L 22.5 19.5 L 22.5 16.5 Z M 10.5 22.5 L 10.5 25.5 L 25.5 25.5 L 25.5 22.5 Z M 10.5 22.5 "/>
</g>
</svg>
