<svg width="38" height="38" viewBox="0 0 38 38" fill="none" xmlns="http://www.w3.org/2000/svg">
<g clip-path="url(#clip0)">
<path d="M14.8 17.0995H9.43685L9.4387 17.0829C9.68026 15.9 10.153 14.7766 10.8299 13.7769C11.8371 12.2929 13.25 11.1299 14.8999 10.4266C15.4586 10.1898 16.0413 10.0085 16.6352 9.88822C17.8671 9.63846 19.1366 9.63846 20.3685 9.88822C22.1389 10.251 23.7634 11.1266 25.0398 12.4061L27.6594 9.79387C26.4787 8.6129 25.0818 7.67015 23.545 7.01702C22.7611 6.68519 21.9462 6.43234 21.1122 6.26222C19.3914 5.91259 17.6179 5.91259 15.8971 6.26222C15.0624 6.43304 14.2469 6.68651 13.4625 7.01887C11.1509 7.99956 9.17217 9.62754 7.76445 11.7068C6.81704 13.1088 6.15451 14.6834 5.81455 16.341C5.76275 16.5908 5.735 16.8461 5.698 17.0995H0L7.4 24.4995L14.8 17.0995ZM22.2 20.7995H27.5632L27.5613 20.8143C27.0779 23.1856 25.6803 25.2711 23.6708 26.6196C22.6714 27.297 21.5478 27.7699 20.3648 28.0108C19.1335 28.2606 17.8646 28.2606 16.6334 28.0108C15.4505 27.7693 14.327 27.2965 13.3274 26.6196C12.8364 26.2875 12.3781 25.9097 11.9584 25.4911L9.3425 28.107C10.5237 29.2877 11.9213 30.2298 13.4587 30.882C14.2431 31.215 15.0627 31.4685 15.8915 31.6368C17.6117 31.9867 19.3846 31.9867 21.1048 31.6368C24.421 30.9485 27.338 28.9939 29.2355 26.1886C30.182 24.7876 30.8439 23.2143 31.1836 21.558C31.2336 21.3083 31.2632 21.053 31.3002 20.7995H37L29.6 13.3995L22.2 20.7995Z" fill="black"/>
</g>
<defs>
<clipPath id="clip0">
<rect width="38" height="38" fill="white"/>
</clipPath>
</defs>
</svg>
