<svg id="tick" width="16" height="16" viewBox="0 0 16 16" fill="none" xmlns="http://www.w3.org/2000/svg">
<path id="circle" d="M8 1.33333C4.33333 1.33333 1.33333 4.33333 1.33333 8C1.33333 11.6667 4.33333 14.6667 8 14.6667C11.6667 14.6667 14.6667 11.6667 14.6667 8C14.6667 4.33333 11.6667 1.33333 8 1.33333ZM8 13.3333C5.06 13.3333 2.66667 10.94 2.66667 8C2.66667 5.06 5.06 2.66667 8 2.66667C10.94 2.66667 13.3333 5.06 13.3333 8C13.3333 10.94 10.94 13.3333 8 13.3333Z"/>
<path id="mark" d="M11.06 5.05333L6.66667 9.44667L4.94 7.72667L4 8.66667L6.66667 11.3333L12 6L11.06 5.05333Z"/>
</svg>
