<?xml version="1.0" encoding="UTF-8"?>
<svg xmlns="http://www.w3.org/2000/svg" xmlns:xlink="http://www.w3.org/1999/xlink" width="36" height="36" viewBox="0 0 36 36" version="1.1">
<g id="surface3393037">
<path style=" stroke:none;fill-rule:nonzero;fill:rgb(0%,0%,0%);fill-opacity:1;" d="M 9 3 L 9 6 L 7.5 6 C 5.84375 6 4.5 7.34375 4.5 9 L 4.5 30 C 4.5 31.65625 5.84375 33 7.5 33 L 28.5 33 C 30.15625 33 31.5 31.65625 31.5 30 L 31.5 9 C 31.5 7.34375 30.15625 6 28.5 6 L 27 6 L 27 3 L 24 3 L 24 6 L 12 6 L 12 3 Z M 7.5 9 L 28.5 9 L 28.5 12 L 7.5 12 Z M 7.5 15 L 28.5 15 L 28.503906 30 L 7.5 30 Z M 22.199219 16.949219 L 17.25 21.898438 L 14.546875 19.199219 L 12.449219 21.300781 L 17.25 26.101562 L 24.296875 19.050781 Z M 22.199219 16.949219 "/>
</g>
</svg>
