<svg width="20" height="20" viewBox="0 0 20 20" fill="none" xmlns="http://www.w3.org/2000/svg">
<path d="M16.6667 4.16667V15.8333H3.33332V4.16667H16.6667ZM16.6667 2.5H3.33332C2.40832 2.5 1.66666 3.24167 1.66666 4.16667V15.8333C1.66666 16.7583 2.40832 17.5 3.33332 17.5H16.6667C17.5917 17.5 18.3333 16.7583 18.3333 15.8333V4.16667C18.3333 3.24167 17.5917 2.5 16.6667 2.5ZM15 12.5H4.99999V14.1667H15V12.5ZM8.33332 5.83333H4.99999V10.8333H8.33332V5.83333ZM9.99999 7.5H15V5.83333H9.99999V7.5ZM15 9.16667H9.99999V10.8333H15V9.16667Z" fill="#282828"/>
</svg>
