<svg width="16" height="16" viewBox="0 0 16 16" fill="none" xmlns="http://www.w3.org/2000/svg">
<path d="M10.4 7.19333C11.0467 6.74667 11.5 6.01333 11.5 5.33333C11.5 3.82667 10.3333 2.66667 8.83333 2.66667H4.66667V12H9.36C10.7533 12 11.8333 10.8667 11.8333 9.47333C11.8333 8.46 11.26 7.59333 10.4 7.19333ZM6.66667 4.33333H8.66667C9.22 4.33333 9.66667 4.78 9.66667 5.33333C9.66667 5.88667 9.22 6.33333 8.66667 6.33333H6.66667V4.33333ZM9 10.3333H6.66667V8.33333H9C9.55333 8.33333 10 8.78 10 9.33333C10 9.88667 9.55333 10.3333 9 10.3333Z" fill="black"/>
</svg>
