<svg width="16" height="16" viewBox="0 0 16 16" fill="none" xmlns="http://www.w3.org/2000/svg">
<path d="M6.2872 11.7528L5.6392 12.3968C5.36774 12.664 5.0021 12.8138 4.6212 12.8138C4.2403 12.8138 3.87466 12.664 3.6032 12.3968C3.47084 12.2657 3.36578 12.1097 3.29407 11.9378C3.22237 11.7659 3.18545 11.5815 3.18545 11.3952C3.18545 11.2089 3.22237 11.0245 3.29407 10.8526C3.36578 10.6807 3.47084 10.5247 3.6032 10.3936L5.9872 8.0296C6.4808 7.5392 7.4104 6.8176 8.088 7.4896C8.16092 7.56735 8.24876 7.62962 8.34627 7.67268C8.44378 7.71575 8.54897 7.73873 8.65556 7.74024C8.76214 7.74176 8.86794 7.72179 8.96664 7.68153C9.06534 7.64126 9.15492 7.58152 9.23003 7.50588C9.30513 7.43024 9.36423 7.34024 9.40379 7.24125C9.44335 7.14227 9.46257 7.03633 9.46029 6.92975C9.45801 6.82318 9.43428 6.71816 9.39052 6.62096C9.34677 6.52375 9.28387 6.43636 9.2056 6.364C8.0552 5.2216 6.3528 5.4328 4.8704 6.904L2.4864 9.2688C2.20471 9.54651 1.98124 9.87761 1.82904 10.2427C1.67684 10.6078 1.59897 10.9996 1.6 11.3952C1.59902 11.7908 1.6769 12.1825 1.8291 12.5476C1.98129 12.9128 2.20475 13.2439 2.4864 13.5216C3.05416 14.0848 3.82192 14.4 4.6216 14.3984C5.3952 14.3984 6.1688 14.1064 6.7568 13.5216L7.4056 12.8776C7.47959 12.8044 7.5384 12.7174 7.57866 12.6214C7.61892 12.5255 7.63984 12.4225 7.64021 12.3184C7.64058 12.2144 7.6204 12.1113 7.58083 12.015C7.54125 11.9188 7.48307 11.8313 7.4096 11.7576C7.26109 11.6087 7.05969 11.5246 6.84939 11.5237C6.63909 11.5228 6.43698 11.6052 6.2872 11.7528ZM13.5128 2.5656C12.2752 1.3384 10.5456 1.272 9.4016 2.408L8.5944 3.2096C8.44524 3.3577 8.36103 3.55898 8.36028 3.76917C8.35953 3.97936 8.4423 4.18124 8.5904 4.3304C8.7385 4.47956 8.93978 4.56377 9.14997 4.56453C9.36016 4.56528 9.56204 4.4825 9.7112 4.3344L10.5192 3.5336C11.1112 2.9448 11.888 3.1888 12.396 3.6912C12.6648 3.9592 12.8136 4.3144 12.8136 4.6928C12.8136 5.0712 12.6648 5.4264 12.396 5.6936L9.852 8.2168C8.6888 9.3696 8.1432 8.8296 7.9104 8.5984C7.83654 8.52507 7.74897 8.46701 7.65267 8.42752C7.55638 8.38804 7.45325 8.3679 7.34917 8.36827C7.2451 8.36865 7.14211 8.38951 7.0461 8.42968C6.95009 8.46986 6.86293 8.52854 6.7896 8.6024C6.71627 8.67626 6.65821 8.76383 6.61872 8.86013C6.57924 8.95642 6.5591 9.05955 6.55948 9.16363C6.55985 9.2677 6.58071 9.37069 6.62089 9.4667C6.66106 9.56271 6.71975 9.64987 6.7936 9.7232C7.328 10.2528 7.9376 10.5152 8.576 10.5152C9.3576 10.5152 10.184 10.1216 10.9704 9.3416L13.5144 6.8192C13.7955 6.54107 14.0185 6.20988 14.1705 5.84485C14.3226 5.47982 14.4006 5.08822 14.4 4.6928C14.4007 4.29709 14.3226 3.9052 14.1703 3.53998C14.018 3.17476 13.7945 2.84353 13.5128 2.5656Z" fill="black"/>
</svg>
