<svg width="16" height="16" viewBox="0 0 16 16" fill="none" xmlns="http://www.w3.org/2000/svg">
<path d="M13.9167 4.66667H2.08333C1.302 4.66667 0.666668 5.26467 0.666668 6V10C0.666668 10.7353 1.302 11.3333 2.08333 11.3333H13.9167C14.698 11.3333 15.3333 10.7353 15.3333 10V6C15.3333 5.26467 14.698 4.66667 13.9167 4.66667ZM13.9167 10H2.08333C2.04533 10 2.01933 9.98933 2.008 9.98933C2.00333 9.98933 2.00067 9.99067 2 9.99467L1.992 6.03067C1.99667 6.024 2.02667 6 2.08333 6H3.33333V8H4.66667V6H6V8.66667H7.33333V6H8.66667V8H10V6H11.3333V8.66667H12.6667V6H13.9167C13.9693 6.00067 13.998 6.01867 14 6.00533L14.008 9.96933C14.0033 9.976 13.9733 10 13.9167 10V10Z" fill="black"/>
</svg>
