<svg width="16" height="16" viewBox="0 0 16 16" fill="none" xmlns="http://www.w3.org/2000/svg">
<path d="M2.66666 7C2.11333 7 1.66666 7.44667 1.66666 8C1.66666 8.55333 2.11333 9 2.66666 9C3.22 9 3.66666 8.55333 3.66666 8C3.66666 7.44667 3.22 7 2.66666 7ZM2.66666 3C2.11333 3 1.66666 3.44667 1.66666 4C1.66666 4.55333 2.11333 5 2.66666 5C3.22 5 3.66666 4.55333 3.66666 4C3.66666 3.44667 3.22 3 2.66666 3ZM2.66666 11C2.11333 11 1.66666 11.4533 1.66666 12C1.66666 12.5467 2.12 13 2.66666 13C3.21333 13 3.66666 12.5467 3.66666 12C3.66666 11.4533 3.22 11 2.66666 11ZM4.66666 12.6667H14V11.3333H4.66666V12.6667ZM4.66666 8.66667H14V7.33333H4.66666V8.66667ZM4.66666 3.33333V4.66667H14V3.33333H4.66666Z" fill="black"/>
</svg>
